<svg width="25" height="24" viewBox="0 0 25 24" fill="none" xmlns="http://www.w3.org/2000/svg">
<path d="M15.0494 22H5.75941C4.74897 21.9639 3.80775 21.4774 3.194 20.6739C2.58024 19.8704 2.35843 18.8344 2.58941 17.85L2.81941 16.71C3.09544 15.1668 4.42203 14.0327 5.98941 14H14.8094C16.3791 14.0319 17.709 15.1652 17.9894 16.71L18.2194 17.85C18.4466 18.834 18.2233 19.8679 17.6103 20.6704C16.9973 21.4729 16.0585 21.9604 15.0494 22Z" fill="white"/>
<path d="M10.8994 12H9.89941C7.69027 12 5.89941 10.2092 5.89941 8.00001V5.36001C5.89941 3.50434 7.40373 2.00001 9.25941 2.00001H11.5394C12.4313 1.99735 13.2875 2.35049 13.9182 2.98119C14.5489 3.61189 14.9021 4.46807 14.8994 5.36001V8.00001C14.8994 10.2092 13.1085 12 10.8994 12Z" fill="white"/>
<path d="M21.3994 6.25002H20.0294V4.88002C20.0294 4.4658 19.6936 4.13002 19.2794 4.13002C18.8652 4.13002 18.5294 4.4658 18.5294 4.88002V6.25002H17.1694C16.7552 6.25002 16.4194 6.5858 16.4194 7.00002C16.4194 7.41423 16.7552 7.75002 17.1694 7.75002H18.5294V9.12002C18.5294 9.53423 18.8652 9.87002 19.2794 9.87002C19.6936 9.87002 20.0294 9.53423 20.0294 9.12002V7.75002H21.3994C21.8136 7.75002 22.1494 7.41423 22.1494 7.00002C22.1494 6.5858 21.8136 6.25002 21.3994 6.25002Z" fill="white"/>
</svg>
