<svg width="20" height="20" viewBox="0 0 20 20" fill="none" xmlns="http://www.w3.org/2000/svg">
<path d="M9.99866 1.67847C8.92116 1.67847 7.70617 4.97013 7.55033 9.17846H12.447C12.2911 4.97096 11.0762 1.67847 9.99866 1.67847ZM7.36865 2.09513C4.29615 3.1193 1.98283 5.92929 1.69116 9.17846H5.88367C5.97617 6.31263 6.49365 3.77096 7.36865 2.09513ZM12.6287 2.09513C13.5037 3.77096 14.0211 6.31263 14.1136 9.17846H18.2803C17.9786 5.89096 15.7312 3.13763 12.6287 2.09513ZM1.717 10.8451C2.017 14.1843 4.33532 16.9201 7.39449 17.9284C6.52032 16.2526 5.97617 13.711 5.88367 10.8451H1.717ZM7.55033 10.8451C7.70617 15.0526 8.92116 18.3451 9.99866 18.3451C11.0762 18.3451 12.2911 15.0534 12.447 10.8451H7.55033ZM14.1136 10.8451C14.0211 13.711 13.477 16.2526 12.6028 17.9284C15.7453 16.8593 17.9736 14.0785 18.2803 10.8451H14.1136Z" fill="#F2F2F2"/>
</svg>
