<svg width="21" height="20" viewBox="0 0 21 20" fill="none" xmlns="http://www.w3.org/2000/svg">
<path d="M0.625 4C0.625 1.79086 2.41586 0 4.625 0H12.625C14.8341 0 16.625 1.79086 16.625 4V12C16.625 14.2091 14.8341 16 12.625 16H4.625C2.41586 16 0.625 14.2091 0.625 12V4Z" fill="white"/>
<path d="M15.625 19.75H7.625C7.20917 19.7445 6.87496 19.4059 6.875 18.99C6.88047 18.5797 7.21466 18.25 7.625 18.25H15.625C16.4887 18.25 17.3169 17.9062 17.9266 17.2946C18.5364 16.6829 18.8777 15.8537 18.875 14.99V6.99C18.875 6.57579 19.2108 6.24 19.625 6.24C20.0392 6.24 20.375 6.57579 20.375 6.99V14.99C20.375 17.615 18.25 19.7445 15.625 19.75Z" fill="white"/>
<path d="M7.34368 11.6368C7.1416 11.6367 6.94579 11.5666 6.78951 11.4385L4.17618 9.29768C3.81884 8.98725 3.77315 8.44893 4.07307 8.08272C4.37298 7.71651 4.90974 7.6552 5.28451 7.94435L7.30868 9.60101L13.142 4.22851C13.3613 3.9678 13.7119 3.85804 14.0407 3.9472C14.3695 4.03636 14.6166 4.30822 14.6741 4.64398C14.7316 4.97974 14.589 5.31835 14.3087 5.51185L7.93868 11.4035C7.7775 11.5545 7.56456 11.638 7.34368 11.6368Z" fill="#3C2355"/>
</svg>
