<svg width="17" height="17" viewBox="0 0 17 17" fill="none" xmlns="http://www.w3.org/2000/svg">
<path d="M8.35121 5.69502C8.07955 5.72634 7.87453 5.95635 7.87453 6.22981C7.87453 6.50327 8.07955 6.73329 8.35121 6.7646C8.49394 6.76659 8.63131 6.71027 8.73157 6.60867C8.83184 6.50706 8.88633 6.36896 8.88246 6.22627C8.87864 5.93446 8.64302 5.69884 8.35121 5.69502Z" fill="#9B51E0"/>
<path d="M8.35121 7.73502C8.20973 7.7331 8.07348 7.78845 7.97343 7.8885C7.87339 7.98855 7.81803 8.12479 7.81996 8.26627V10.4763C7.81996 10.7697 8.05781 11.0075 8.35121 11.0075C8.64461 11.0075 8.88246 10.7697 8.88246 10.4763V8.28044C8.88628 8.1371 8.832 7.99831 8.73196 7.89559C8.63191 7.79288 8.4946 7.73497 8.35121 7.73502Z" fill="#9B51E0"/>
<path fill-rule="evenodd" clip-rule="evenodd" d="M8.35121 1.41669C4.52296 1.42059 1.42053 4.52302 1.41663 8.35127C1.41663 12.1811 4.52134 15.2859 8.35121 15.2859C12.1811 15.2859 15.2858 12.1811 15.2858 8.35127C15.2819 4.52302 12.1795 1.42059 8.35121 1.41669ZM8.35121 14.2234C5.10815 14.2234 2.47913 11.5943 2.47913 8.35127C2.47913 5.10821 5.10815 2.47919 8.35121 2.47919C11.5943 2.47919 14.2233 5.10821 14.2233 8.35127C14.2194 11.5927 11.5927 14.2194 8.35121 14.2234Z" fill="#9B51E0"/>
</svg>
