<svg width="18" height="18" viewBox="0 0 18 18" fill="none" xmlns="http://www.w3.org/2000/svg">
<path d="M6.69001 8.99997H6.75001C8.40686 8.99997 9.75001 7.65682 9.75001 5.99997V4.82247C9.74804 4.14952 9.47778 3.50514 8.99912 3.03211C8.52047 2.55909 7.87293 2.29647 7.20001 2.30247H6.21001C4.81996 2.30659 3.69413 3.43242 3.69001 4.82247V5.99997C3.69001 7.65682 5.03315 8.99997 6.69001 8.99997Z" fill="#F2F2F2"/>
<path d="M13.125 8.43747C14.3677 8.43747 15.375 7.43011 15.375 6.18747V5.32497C15.375 4.28698 14.538 3.44321 13.5 3.43497H12.75C11.7121 3.44321 10.875 4.28698 10.875 5.32497V6.18747C10.875 7.43011 11.8824 8.43747 13.125 8.43747Z" fill="#F2F2F2"/>
<path d="M16.7925 11.565L16.6725 10.9725C16.5307 10.1591 15.8256 9.56474 15 9.56247H10.425C9.86592 9.56366 9.34475 9.84537 9.03751 10.3125H3.75001C3.21951 10.3129 2.70942 10.5169 2.32501 10.8825C1.99473 11.1851 1.76231 11.5794 1.65751 12.015C1.65751 12.0525 1.65751 12.09 1.65751 12.12V12.315L1.50001 12.915C1.33959 13.5714 1.48269 14.2652 1.88976 14.8045C2.29683 15.3439 2.92476 15.6717 3.60001 15.6975H9.81001C9.96937 15.6969 10.1281 15.6768 10.2825 15.6375H10.38C10.4927 15.6054 10.603 15.5653 10.71 15.5175L10.83 15.45C10.9195 15.3994 11.0048 15.3418 11.085 15.2775L11.205 15.18C11.2788 15.1112 11.3489 15.0386 11.415 14.9625C11.415 14.925 11.4825 14.895 11.5125 14.85C11.5963 14.7398 11.6692 14.6218 11.73 14.4975C11.762 14.4293 11.7896 14.3592 11.8125 14.2875C11.842 14.2192 11.867 14.149 11.8875 14.0775C11.8875 14.0025 11.925 13.9275 11.94 13.8525V13.74H15.15C15.6796 13.7243 16.1735 13.4692 16.4928 13.0463C16.8121 12.6235 16.9224 12.0787 16.7925 11.565Z" fill="#F2F2F2"/>
</svg>
