<svg width="25" height="24" viewBox="0 0 25 24" fill="none" xmlns="http://www.w3.org/2000/svg">
<path d="M16.7385 15.5943C15.9946 15.131 15.0639 15.0856 14.2785 15.4743L11.2785 12.4743C11.5007 11.9676 11.5499 11.4018 11.4185 10.8643C11.3962 10.7895 11.3694 10.716 11.3385 10.6443L14.2785 7.70433C15.3794 8.24712 16.7117 7.90299 17.412 6.89498C18.1122 5.88697 17.9698 4.51834 17.0771 3.67607C16.1843 2.83381 14.8096 2.77132 13.8441 3.52909C12.8786 4.28687 12.6126 5.63694 13.2185 6.70433L10.4485 9.43433C9.50536 8.76394 8.22541 8.82839 7.35437 9.59013C6.48333 10.3519 6.24886 11.6118 6.78756 12.6359C7.32626 13.66 8.49733 14.1806 9.6185 13.8943C9.85153 13.8259 10.0737 13.7249 10.2785 13.5943L13.2785 16.5943C12.6624 17.7989 13.1209 19.2751 14.311 19.9186C15.5012 20.5621 16.9875 20.1375 17.658 18.9623C18.3286 17.7871 17.938 16.2916 16.7785 15.5943H16.7385Z" fill="white"/>
</svg>
