<svg width="16" height="16" viewBox="0 0 16 16" fill="none" xmlns="http://www.w3.org/2000/svg">
<path d="M1.08 3.5C1.08 2.67157 1.75157 2 2.58 2H4.91333C5.74176 2 6.41333 2.67157 6.41333 3.5V5.83333C6.41333 6.66176 5.74176 7.33333 4.91333 7.33333H2.58C1.75157 7.33333 1.08 6.66176 1.08 5.83333V3.5Z" fill="#9B51E0"/>
<path d="M1.08 10.1667C1.08 9.33824 1.75157 8.66667 2.58 8.66667H4.91333C5.74176 8.66667 6.41333 9.33824 6.41333 10.1667V12.5C6.41333 13.3284 5.74176 14 4.91333 14H2.58C1.75157 14 1.08 13.3284 1.08 12.5V10.1667Z" fill="#9B51E0"/>
<path d="M9.08 4.5H12.4133C12.6895 4.5 12.9133 4.27614 12.9133 4C12.9133 3.72386 12.6895 3.5 12.4133 3.5H9.08C8.80386 3.5 8.58 3.72386 8.58 4C8.58 4.27614 8.80386 4.5 9.08 4.5Z" fill="#9B51E0"/>
<path d="M9.08 6.5H14.4133C14.6895 6.5 14.9133 6.27614 14.9133 6C14.9133 5.72386 14.6895 5.5 14.4133 5.5H9.08C8.80386 5.5 8.58 5.72386 8.58 6C8.58 6.27614 8.80386 6.5 9.08 6.5Z" fill="#9B51E0"/>
<path d="M9.08 11.1667H12.4133C12.6895 11.1667 12.9133 10.9428 12.9133 10.6667C12.9133 10.3905 12.6895 10.1667 12.4133 10.1667H9.08C8.80386 10.1667 8.58 10.3905 8.58 10.6667C8.58 10.9428 8.80386 11.1667 9.08 11.1667Z" fill="#9B51E0"/>
<path d="M14.4133 12.1667H9.08C8.80386 12.1667 8.58 12.3905 8.58 12.6667C8.58 12.9428 8.80386 13.1667 9.08 13.1667H14.4133C14.6895 13.1667 14.9133 12.9428 14.9133 12.6667C14.9133 12.3905 14.6895 12.1667 14.4133 12.1667Z" fill="#9B51E0"/>
</svg>
