<svg width="32" height="32" viewBox="0 0 32 32" fill="none" xmlns="http://www.w3.org/2000/svg">
<path fill-rule="evenodd" clip-rule="evenodd" d="M29.4761 17.0539L27.2227 6.20053C26.7933 4.14206 24.9789 2.66709 22.8761 2.6672H9.47607C7.34832 2.63519 5.49704 4.11733 5.06274 6.20053L2.80941 17.0539C2.42004 18.248 2.84559 19.557 3.86274 20.2939L14.4361 27.9739C15.4513 28.7207 16.8342 28.7207 17.8494 27.9739L28.4227 20.2939C29.4399 19.557 29.8654 18.248 29.4761 17.0539ZM11.9161 12.0005L14.7294 9.1872C15.1198 8.79726 15.7523 8.79726 16.1427 9.1872C16.3333 9.37291 16.4408 9.62775 16.4408 9.89386C16.4408 10.16 16.3333 10.4148 16.1427 10.6005L13.3294 13.4139C13.1456 13.6067 12.8891 13.7132 12.6227 13.7072C12.3573 13.7084 12.1026 13.6027 11.9161 13.4139C11.5261 13.0234 11.5261 12.391 11.9161 12.0005ZM12.6361 18.3872L21.0627 9.9072V9.96053C21.3303 9.71124 21.4404 9.33579 21.3499 8.98148C21.2594 8.62717 20.9828 8.3505 20.6285 8.26002C20.2742 8.16953 19.8987 8.27966 19.6494 8.5472L11.2227 16.9739C11.0321 17.1596 10.9246 17.4144 10.9246 17.6805C10.9246 17.9466 11.0321 18.2015 11.2227 18.3872C11.4065 18.5801 11.6631 18.6865 11.9294 18.6805C12.1948 18.6818 12.4496 18.576 12.6361 18.3872Z" fill="white"/>
</svg>
