<svg width="32" height="32" viewBox="0 0 32 32" fill="none" xmlns="http://www.w3.org/2000/svg">
<path d="M16.24 15.1334C18.4234 15.1337 20.2036 13.3831 20.24 11.2V9.7067C20.2401 8.82039 19.8844 7.97114 19.2527 7.34947C18.621 6.72779 17.7662 6.38573 16.88 6.40003H15.6133C13.7923 6.40737 12.32 7.88567 12.32 9.7067V11.2C12.3555 13.3523 14.0878 15.0906 16.24 15.1334Z" fill="white"/>
<path d="M30.3733 22.0134L30.2133 20C30.0404 18.9889 29.1723 18.2441 28.1467 18.2267H22.3867C22.2983 18.2129 22.2084 18.2129 22.12 18.2267C21.609 17.6527 20.8752 17.3271 20.1067 17.3334H12.3867C11.5729 17.3298 10.802 17.6981 10.2933 18.3334C10.0755 18.2537 9.84529 18.2131 9.61334 18.2134H3.85333C2.82345 18.2319 1.95388 18.9836 1.78667 20L1.62667 22.08C1.49268 22.7179 1.64664 23.3824 2.04751 23.8963C2.44837 24.4102 3.05538 24.7214 3.70667 24.7467H9.77334C9.89294 24.7605 10.0137 24.7605 10.1333 24.7467C10.6622 25.3304 11.4124 25.6643 12.2 25.6667H20.2933C21.057 25.6631 21.7853 25.3447 22.3067 24.7867H28.2933C28.9683 24.7681 29.5978 24.4424 30.0029 23.9022C30.408 23.362 30.5444 22.6665 30.3733 22.0134Z" fill="white"/>
<path d="M25.3333 16.1467C26.9534 16.1467 28.2667 14.8334 28.2667 13.2134V12.08C28.2669 11.4141 27.9979 10.7764 27.5208 10.3118C27.0437 9.84728 26.399 9.59536 25.7333 9.61336H24.8C23.4377 9.61336 22.3333 10.7177 22.3333 12.08V13.2134C22.3331 14.003 22.6513 14.7594 23.2159 15.3115C23.7805 15.8635 24.5439 16.1646 25.3333 16.1467Z" fill="white"/>
<path d="M6.73334 16.1467C8.35337 16.1467 9.66667 14.8334 9.66667 13.2134V12.08C9.66667 10.7177 8.56231 9.61336 7.2 9.61336H6.26667C4.90437 9.61336 3.8 10.7177 3.8 12.08V13.2134C3.8 14.8334 5.1133 16.1467 6.73334 16.1467Z" fill="white"/>
</svg>
