<svg width="16" height="16" viewBox="0 0 16 16" fill="none" xmlns="http://www.w3.org/2000/svg">
<path d="M1.08002 3.5C1.08002 2.67157 1.75159 2 2.58002 2H4.91335C5.74178 2 6.41335 2.67157 6.41335 3.5V5.83333C6.41335 6.66176 5.74178 7.33333 4.91335 7.33333H2.58002C1.75159 7.33333 1.08002 6.66176 1.08002 5.83333V3.5Z" fill="#F2F2F2"/>
<path d="M1.08002 10.1667C1.08002 9.33824 1.75159 8.66667 2.58002 8.66667H4.91335C5.74178 8.66667 6.41335 9.33824 6.41335 10.1667V12.5C6.41335 13.3284 5.74178 14 4.91335 14H2.58002C1.75159 14 1.08002 13.3284 1.08002 12.5V10.1667Z" fill="#F2F2F2"/>
<path d="M9.08002 4.5H12.4133C12.6895 4.5 12.9133 4.27614 12.9133 4C12.9133 3.72386 12.6895 3.5 12.4133 3.5H9.08002C8.80387 3.5 8.58002 3.72386 8.58002 4C8.58002 4.27614 8.80387 4.5 9.08002 4.5Z" fill="#F2F2F2"/>
<path d="M9.08002 6.5H14.4133C14.6895 6.5 14.9133 6.27614 14.9133 6C14.9133 5.72386 14.6895 5.5 14.4133 5.5H9.08002C8.80387 5.5 8.58002 5.72386 8.58002 6C8.58002 6.27614 8.80387 6.5 9.08002 6.5Z" fill="#F2F2F2"/>
<path d="M9.08002 11.1667H12.4133C12.6895 11.1667 12.9133 10.9428 12.9133 10.6667C12.9133 10.3905 12.6895 10.1667 12.4133 10.1667H9.08002C8.80387 10.1667 8.58002 10.3905 8.58002 10.6667C8.58002 10.9428 8.80387 11.1667 9.08002 11.1667Z" fill="#F2F2F2"/>
<path d="M14.4133 12.1667H9.08002C8.80387 12.1667 8.58002 12.3905 8.58002 12.6667C8.58002 12.9428 8.80387 13.1667 9.08002 13.1667H14.4133C14.6895 13.1667 14.9133 12.9428 14.9133 12.6667C14.9133 12.3905 14.6895 12.1667 14.4133 12.1667Z" fill="#F2F2F2"/>
</svg>
