<svg width="32" height="32" viewBox="0 0 32 32" fill="none" xmlns="http://www.w3.org/2000/svg">
<path d="M29.4667 12.1333C29.3333 7.6 25.7333 4 21.2 4C19.7333 4 17.4667 5.06667 16.5333 6.8C16.4 7.2 15.8667 7.2 15.7333 6.8C14.6667 5.2 12.5333 4.13333 10.9333 4.13333C6.53334 4.13333 2.80001 7.73333 2.66667 12.1333V12.4C2.66667 14.6667 3.60001 16.8 5.20001 18.4C5.20001 18.4 5.20001 18.4 5.20001 18.5333C5.33334 18.6667 11.7333 24.2667 14.6667 26.8C15.4667 27.4667 16.6667 27.4667 17.4667 26.8C20.4 24.2667 26.6667 18.6667 26.9333 18.5333C26.9333 18.5333 26.9333 18.5333 26.9333 18.4C28.5333 16.9333 29.4667 14.8 29.4667 12.4V12.1333Z" fill="white"/>
</svg>
