<svg width="25" height="24" viewBox="0 0 25 24" fill="none" xmlns="http://www.w3.org/2000/svg">
<path d="M2.84996 9.54997L10.77 13.55C11.5777 13.9292 12.5123 13.9292 13.32 13.55L22.11 9.54997C22.4283 9.37385 22.6258 9.03876 22.6258 8.67497C22.6258 8.31118 22.4283 7.97609 22.11 7.79997L13.32 3.79997C12.9369 3.62614 12.5206 3.53743 12.1 3.53997C11.6387 3.53968 11.1836 3.64576 10.77 3.84997L2.84996 7.84997C2.55575 8.03231 2.37675 8.35383 2.37675 8.69997C2.37675 9.04611 2.55575 9.36763 2.84996 9.54997Z" fill="white"/>
<path d="M21.79 12L12.94 15.69C12.3987 15.9459 11.7712 15.9459 11.23 15.69L3.38996 12C3.01152 11.8296 2.56635 11.9943 2.38996 12.37C2.30532 12.5515 2.2968 12.7593 2.36631 12.9472C2.43581 13.135 2.57755 13.2873 2.75996 13.37L10.58 17C11.0659 17.2369 11.5994 17.36 12.14 17.36C12.6227 17.3608 13.1 17.2585 13.54 17.06L22.36 13.39C22.7438 13.2326 22.9274 12.7938 22.77 12.41C22.6126 12.0261 22.1738 11.8426 21.79 12Z" fill="white"/>
<path d="M21.79 15.08L12.94 18.77C12.3987 19.0259 11.7712 19.0259 11.23 18.77L3.38996 15.09C3.14524 14.9774 2.85906 15.004 2.63924 15.1597C2.41941 15.3153 2.29933 15.5765 2.32424 15.8447C2.34914 16.1129 2.51524 16.3474 2.75996 16.46L10.58 20.08C11.0652 20.32 11.5986 20.4465 12.14 20.45C12.6234 20.4473 13.1006 20.3417 13.54 20.14L22.36 16.47C22.5495 16.3949 22.7004 16.2458 22.7777 16.0572C22.8551 15.8685 22.8523 15.6565 22.77 15.47C22.6053 15.0934 22.1683 14.9195 21.79 15.08Z" fill="white"/>
</svg>
